<svg width="120" height="60" viewBox="0 0 120 60" fill="none" xmlns="http://www.w3.org/2000/svg">
<path d="M0.00714111 25.7099V1.41504H4.54768V21.5231H15.7516V25.7099H0.00714111Z" fill="black"/>
<path d="M26.6018 26.0047C25.0686 26.0047 23.7123 25.5919 22.533 24.7664C21.2946 23.9408 20.3512 22.8204 19.5846 21.3462C18.818 19.931 18.4642 18.2799 18.4642 16.4519C18.4642 14.6239 18.818 12.9727 19.5846 11.5575C20.3512 10.1423 21.3536 9.02189 22.5919 8.19634C23.8892 7.37078 25.3045 6.95801 26.8966 6.95801C27.8401 6.95801 28.6656 7.07594 29.4322 7.37078C30.1988 7.66562 30.8475 8.01943 31.4371 8.49118C32.0268 8.96292 32.4986 9.5526 32.8524 10.1423C33.2062 10.732 33.501 11.4396 33.619 12.1472L32.6755 11.9113V7.31182H36.9801V25.5919H32.6165V21.2283L33.619 21.0514C33.4421 21.7 33.1472 22.2897 32.7344 22.8794C32.3217 23.4691 31.791 23.9998 31.1423 24.4126C30.4937 24.8843 29.786 25.2381 29.0195 25.5329C28.3118 25.8868 27.4863 26.0047 26.6018 26.0047ZM27.7811 22.2307C28.7836 22.2307 29.6681 21.9949 30.4347 21.5231C31.2013 21.0514 31.791 20.3438 32.2037 19.5182C32.6165 18.6337 32.8524 17.6312 32.8524 16.5108C32.8524 15.3904 32.6165 14.388 32.2037 13.5624C31.791 12.6779 31.2013 12.0293 30.4347 11.5575C29.6681 11.0858 28.7836 10.8499 27.7811 10.8499C26.7787 10.8499 25.8941 11.0858 25.1865 11.5575C24.4199 12.0293 23.8303 12.7369 23.4175 13.5624C23.0047 14.447 22.7688 15.3904 22.7688 16.5108C22.7688 17.6312 23.0047 18.6337 23.4175 19.5182C23.8303 20.4027 24.4199 21.0514 25.1865 21.5231C25.8941 21.9949 26.7787 22.2307 27.7811 22.2307Z" fill="black"/>
<path d="M52.3118 26.0049C51.4863 26.0049 50.7197 25.887 49.9531 25.6511C49.1865 25.4152 48.4789 25.0614 47.8302 24.6486C47.1816 24.2359 46.7098 23.7641 46.2971 23.2334C45.8843 22.7027 45.5895 22.172 45.4715 21.6413L46.474 21.1695L46.356 25.5332H42.2283V0H46.474V11.6167L45.7074 11.2629C45.8253 10.7322 46.0612 10.2015 46.474 9.67076C46.8868 9.19902 47.3585 8.72727 48.0071 8.3145C48.5968 7.90172 49.2455 7.60688 50.0121 7.37101C50.7197 7.13513 51.4863 7.0172 52.1939 7.0172C53.845 7.0172 55.2602 7.42998 56.5575 8.25553C57.7958 9.08108 58.7983 10.2015 59.5649 11.6167C60.2725 13.0319 60.6853 14.683 60.6853 16.5111C60.6853 18.3391 60.3315 19.9902 59.6238 21.4644C58.9162 22.8796 57.9138 24 56.6754 24.8256C55.3192 25.6511 53.9039 26.0049 52.3118 26.0049ZM51.4273 22.2899C52.3708 22.2899 53.2553 22.0541 54.0219 21.5233C54.7885 21.0516 55.3781 20.344 55.8499 19.4595C56.2627 18.5749 56.4985 17.5725 56.4985 16.4521C56.4985 15.3317 56.2627 14.3292 55.8499 13.5037C55.4371 12.6192 54.8474 11.9705 54.0808 11.4988C53.3143 11.027 52.4297 10.7912 51.4273 10.7912C50.4248 10.7912 49.5403 11.027 48.7737 11.4988C48.0071 11.9705 47.4175 12.6781 46.9457 13.5037C46.5329 14.3882 46.2971 15.3317 46.2971 16.4521C46.2971 17.5725 46.5329 18.5749 46.9457 19.4595C47.3585 20.344 48.0071 20.9926 48.7737 21.5233C49.5403 22.0541 50.4248 22.2899 51.4273 22.2899Z" fill="black"/>
<path d="M73.0685 26.0048C71.2405 26.0048 69.5894 25.592 68.1742 24.7665C66.7589 23.9409 65.5796 22.8205 64.754 21.4053C63.9285 19.9901 63.5157 18.339 63.5157 16.5109C63.5157 14.6829 63.9285 13.0318 64.754 11.6166C65.5796 10.2014 66.7 9.08097 68.1742 8.25542C69.5894 7.42987 71.2405 7.01709 73.0685 7.01709C74.8965 7.01709 76.4887 7.42987 77.9039 8.25542C79.3191 9.08097 80.4395 10.2014 81.2651 11.6166C82.0906 13.0318 82.5034 14.6829 82.5034 16.5109C82.5034 18.339 82.0906 19.9901 81.2651 21.4053C80.4395 22.8205 79.3191 23.9409 77.9039 24.7665C76.4887 25.651 74.8376 26.0048 73.0685 26.0048ZM73.0685 22.2308C74.071 22.2308 74.9555 21.995 75.7221 21.4643C76.4887 20.9336 77.1373 20.2849 77.5501 19.4004C78.0218 18.5159 78.1987 17.5724 78.1987 16.5109C78.1987 15.3906 78.0218 14.3881 77.5501 13.5625C77.0783 12.678 76.4887 12.0294 75.7221 11.5576C74.9555 11.0859 74.071 10.791 73.0685 10.791C72.0661 10.791 71.1815 11.0269 70.356 11.5576C69.5304 12.0883 68.9407 12.737 68.528 13.6215C68.1152 14.506 67.8793 15.4495 67.8793 16.5699C67.8793 17.6903 68.1152 18.6338 68.528 19.4593C68.9407 20.3439 69.5894 20.9925 70.356 21.5232C71.1226 21.995 72.0661 22.2308 73.0685 22.2308Z" fill="black"/>
<path d="M92.9408 26.005C91.6435 26.005 90.4641 25.7102 89.5206 25.1205C88.5771 24.5308 87.8105 23.7052 87.2798 22.5849C86.7491 21.4645 86.5132 20.1672 86.5132 18.634V7.37109H90.7589V17.7495C90.7589 18.693 90.9358 19.5775 91.2307 20.2261C91.5255 20.9337 91.9973 21.4645 92.528 21.8183C93.1177 22.1721 93.8253 22.349 94.5919 22.349C95.1815 22.349 95.7712 22.231 96.243 22.0541C96.7147 21.8772 97.1865 21.5824 97.5403 21.2286C97.8941 20.8748 98.1889 20.462 98.4248 19.9313C98.6607 19.4595 98.7196 18.8699 98.7196 18.3392V7.37109H102.965V25.6512H98.7786L98.7196 21.8183L99.4862 21.4055C99.1914 22.29 98.7196 23.0566 98.071 23.7642C97.4223 24.4718 96.6558 25.0025 95.7123 25.4153C94.8867 25.8281 93.9432 26.005 92.9408 26.005Z" fill="black"/>
<path d="M108.273 25.7101V7.42998H112.459L112.518 13.2678L111.929 11.9705C112.164 11.027 112.636 10.2015 113.226 9.49386C113.816 8.78625 114.582 8.19657 115.408 7.72482C116.233 7.31204 117.118 7.07617 118.002 7.07617C118.415 7.07617 118.769 7.13514 119.123 7.19411C119.476 7.25308 119.771 7.37101 120.007 7.42998L118.887 12.0885C118.651 11.9705 118.297 11.8526 117.943 11.7346C117.589 11.6167 117.177 11.6167 116.823 11.6167C116.233 11.6167 115.702 11.7346 115.172 11.9705C114.641 12.2064 114.169 12.5012 113.816 12.914C113.403 13.3268 113.108 13.7396 112.872 14.2703C112.636 14.801 112.518 15.3907 112.518 16.0393V25.769H108.273V25.7101Z" fill="black"/>
<path d="M0.00714111 59.0273V34.7324H4.54768V59.0273H0.00714111ZM2.07102 38.9192V34.7324H16.1054V38.9192H2.07102ZM2.07102 49.0617V44.9929H14.6312V49.0617H2.07102Z" fill="black"/>
<path d="M28.4298 59.3813C26.6018 59.3813 24.9507 58.9685 23.5354 58.1429C22.1202 57.3174 20.9408 56.197 20.1153 54.7818C19.2897 53.3665 18.877 51.7154 18.877 49.8874C18.877 48.0594 19.2897 46.4083 20.1153 44.9931C20.9408 43.5778 22.0612 42.4574 23.5354 41.6319C24.9507 40.8063 26.6018 40.3936 28.4298 40.3936C30.2578 40.3936 31.8499 40.8063 33.2652 41.6319C34.6804 42.4574 35.8008 43.5778 36.6263 44.9931C37.4519 46.4083 37.8647 48.0594 37.8647 49.8874C37.8647 51.7154 37.4519 53.3665 36.6263 54.7818C35.8008 56.197 34.6804 57.3174 33.2652 58.1429C31.8499 58.9685 30.2578 59.3813 28.4298 59.3813ZM28.4298 55.6073C29.4322 55.6073 30.3168 55.3714 31.0833 54.8407C31.8499 54.31 32.4986 53.6614 32.9114 52.7768C33.3831 51.8923 33.56 50.9488 33.56 49.8874C33.56 48.767 33.3831 47.7646 32.9114 46.939C32.4396 46.0545 31.8499 45.4058 31.0833 44.9341C30.3168 44.4623 29.4322 44.1675 28.4298 44.1675C27.4273 44.1675 26.5428 44.4034 25.7172 44.9341C24.8917 45.4648 24.302 46.1135 23.8892 46.998C23.4765 47.8825 23.2406 48.826 23.2406 49.9464C23.2406 51.0668 23.4765 52.0103 23.8892 52.8358C24.302 53.7203 24.9507 54.369 25.7172 54.8997C26.5428 55.3714 27.4273 55.6073 28.4298 55.6073Z" fill="black"/>
<path d="M41.9924 59.0275V40.7474H46.1792L46.2381 46.5852L45.6485 45.2879C45.8843 44.3444 46.3561 43.5189 46.9457 42.8112C47.5354 42.1036 48.302 41.5139 49.1276 41.0422C49.9531 40.6294 50.8376 40.3936 51.7222 40.3936C52.1349 40.3936 52.4887 40.4525 52.8426 40.5115C53.1964 40.5705 53.4912 40.6884 53.7271 40.7474L52.6067 45.4058C52.3708 45.2879 52.017 45.17 51.6632 45.052C51.3094 44.9341 50.8966 44.9341 50.5428 44.9341C49.9531 44.9341 49.4224 45.052 48.8917 45.2879C48.361 45.5238 47.8892 45.8186 47.5354 46.2314C47.1227 46.6442 46.8278 47.0569 46.5919 47.5877C46.3561 48.1184 46.2381 48.7081 46.2381 49.3567V59.0864H41.9924V59.0275Z" fill="black"/>
<path d="M63.9285 59.3813C62.2185 59.3813 60.6853 58.9685 59.329 58.1429C57.9728 57.3174 56.9113 56.197 56.0858 54.7228C55.3192 53.3076 54.9064 51.6565 54.9064 49.8874C54.9064 48.0594 55.3192 46.4673 56.0858 45.052C56.8524 43.6368 57.9728 42.4574 59.329 41.6319C60.6853 40.8063 62.2185 40.3936 63.9285 40.3936C65.5797 40.3936 67.0539 40.6884 68.4101 41.337C69.7664 41.9857 70.7688 42.8112 71.5354 43.9316L69.1767 46.7621C68.8229 46.2904 68.4101 45.8186 67.8794 45.4648C67.3487 45.052 66.759 44.7572 66.1693 44.5213C65.5797 44.2854 64.99 44.1675 64.3413 44.1675C63.3389 44.1675 62.3954 44.4034 61.6288 44.9341C60.8622 45.4648 60.2136 46.1135 59.7418 46.998C59.2701 47.8825 59.0342 48.826 59.0342 49.9464C59.0342 51.0668 59.2701 52.0103 59.7418 52.8358C60.2136 53.7203 60.8622 54.369 61.6878 54.8997C62.5133 55.4304 63.3978 55.6663 64.4003 55.6663C64.99 55.6663 65.5797 55.5483 66.1693 55.3714C66.759 55.1945 67.2897 54.8997 67.7615 54.5459C68.2922 54.1921 68.7639 53.7203 69.1767 53.1307L71.5354 56.0201C70.7688 57.0225 69.6485 57.8481 68.2922 58.4967C66.877 59.0864 65.4617 59.3813 63.9285 59.3813Z" fill="black"/>
<path d="M83.5648 59.381C81.6189 59.381 79.9678 58.9683 78.4936 58.1427C77.0194 57.3172 75.899 56.2557 75.0734 54.8405C74.2479 53.4253 73.8351 51.8331 73.8351 50.0051C73.8351 48.5899 74.071 47.2336 74.5427 46.0543C75.0144 44.8749 75.6631 43.8724 76.4886 42.9879C77.3142 42.1034 78.3167 41.4548 79.437 40.983C80.5574 40.5113 81.8547 40.2754 83.211 40.2754C84.3904 40.2754 85.5108 40.5113 86.5722 40.983C87.6336 41.4548 88.5181 42.1034 89.2847 42.87C90.0513 43.6955 90.641 44.639 91.0538 45.7005C91.4665 46.8208 91.6434 48.0002 91.6434 49.2975L91.5845 50.7717H76.7835L75.9579 47.8823H87.9874L87.4567 48.4719V47.7643C87.3977 47.0567 87.1619 46.4081 86.7491 45.8774C86.3363 45.3466 85.8646 44.9339 85.2159 44.5801C84.6262 44.2852 83.9186 44.1083 83.211 44.1083C82.0906 44.1083 81.1471 44.3442 80.3216 44.757C79.555 45.1697 78.9653 45.8184 78.5525 46.6439C78.1398 47.4695 77.9628 48.472 77.9628 49.7103C77.9628 50.8896 78.1987 51.8921 78.7294 52.7766C79.2012 53.6611 79.9088 54.3098 80.8523 54.7815C81.7368 55.2533 82.8572 55.4891 84.0366 55.4891C84.9211 55.4891 85.6877 55.3712 86.3953 55.0764C87.1029 54.7815 87.8695 54.3098 88.695 53.6022L90.8179 56.5506C90.1692 57.1403 89.4616 57.612 88.695 58.0248C87.8695 58.4376 87.0439 58.7324 86.1594 58.9683C85.3339 59.2631 84.4493 59.381 83.5648 59.381Z" fill="black"/>
<path d="M100.902 59.3807C103.084 59.3807 104.852 57.6119 104.852 55.4299C104.852 53.2479 103.084 51.479 100.902 51.479C98.7196 51.479 96.9507 53.2479 96.9507 55.4299C96.9507 57.6119 98.7196 59.3807 100.902 59.3807Z" fill="#F04800"/>
</svg>
