<svg width="375" height="361" viewBox="0 0 375 361" fill="none" xmlns="http://www.w3.org/2000/svg">
<path d="M56.5336 116.9L170.034 230.4L185.234 215.2C187.034 213.4 188.434 210.2 189.234 206.4C190.534 199.9 189.734 190.4 183.934 182.9C173.734 169.8 148.034 142.1 135.934 129.3L142.834 119.6C179.634 136.4 261.034 155.2 305.734 105.9L314.734 114.1C273.834 159.1 206.734 153.4 162.334 139.9C173.934 152.5 186.834 166.9 193.434 175.4C199.034 182.6 201.934 191.9 201.834 201.3C206.434 202.4 211.234 205.5 215.734 210.3L235.634 230.2C241.634 236.2 242.834 245.7 241.734 254C242.834 253.8 243.934 253.7 245.134 253.6C254.534 253 263.334 256.3 269.834 262.8L275.534 268.5C282.334 275.3 285.134 282.3 285.734 288.9L367.434 207.2L386.234 117.5L445.534 58.2L318.234 -69L253.134 -3.9L129.834 11L60.2336 80.6C52.1336 88.7 48.8336 109.1 56.5336 116.9Z" fill="#F0A686"/>
<path d="M24.1336 216.2L24.2336 216.3C27.4336 219.5 39.5336 222.7 43.5336 218.6L92.2336 169.9L52.0336 129.7L3.33362 178.4C0.433615 181.3 -3.06639 189 4.83361 196.9C6.93361 199 9.33358 201.4 11.7336 203.9C16.7336 208.8 21.6336 213.8 24.1336 216.2Z" fill="#F0A686"/>
<path d="M183.334 346.8L190.334 353.8C200.534 364 215.434 359.3 217.734 357L267.434 307.3C267.634 307.1 281.934 292 267.034 277.1L261.334 271.4C256.134 266.2 250.134 265.5 245.934 265.7C241.034 266 237.534 267.8 236.434 268.9C236.334 269 236.234 269.1 236.234 269.1L236.034 269.4L235.834 269.7L183.234 322.3C180.234 325.2 174.834 338.3 183.334 346.8Z" fill="#F0A686"/>
<path d="M116.933 309L138.533 330.6C140.933 332.6 154.334 333.9 160.234 328L226.834 261.4C229.334 257.8 232.433 244 227.133 238.7L206.933 218.5C204.433 215.8 201.833 214 199.933 213.2C198.533 217.4 196.434 221 193.834 223.6L170.033 247.4L160.033 237.4C146.833 250.9 127.734 270.1 114.834 282.5C109.134 288.3 108.933 301 116.933 309Z" fill="#F0A686"/>
<path d="M73.0335 285.7C75.8335 287 87.3335 291.8 96.1335 284C96.9335 283.3 99.1335 281 101.133 279C103.034 277.1 104.933 275.2 106.233 273.9C119.033 261.5 138.134 242.4 151.334 228.9L100.933 178.5L52.4335 227C45.8335 235.1 38.1335 250.4 44.8335 257.4C54.7335 267.7 67.2335 280 73.0335 285.7Z" fill="#F0A686"/>
</svg>
