<svg width="376" height="358" viewBox="0 0 376 358" fill="none" xmlns="http://www.w3.org/2000/svg">
<path d="M319 243.304L205.5 129.804L190.3 145.004C188.5 146.804 187.1 150.004 186.3 153.804C185 160.304 185.8 169.804 191.6 177.304C201.8 190.404 227.5 218.104 239.6 230.904L232.7 240.604C195.9 223.804 114.5 205.004 69.8 254.304L60.8 246.104C101.7 201.104 168.8 206.804 213.2 220.304C201.6 207.704 188.7 193.304 182.1 184.804C176.5 177.604 173.6 168.304 173.7 158.904C169.1 157.804 164.3 154.704 159.8 149.904L139.9 130.004C133.9 124.004 132.7 114.504 133.8 106.204C132.7 106.404 131.6 106.504 130.4 106.604C121 107.204 112.2 103.904 105.7 97.4039L100 91.7039C93.2 84.9039 90.4 77.904 89.8 71.304L8.1 153.004L-10.7 242.704L-70 301.904L57.2 429.104L122.3 364.004L245.7 349.104L315.3 279.504C323.4 271.504 326.7 251.004 319 243.304Z" fill="#F0A686"/>
<path d="M351.3 143.904L351.2 143.804C348 140.604 335.9 137.404 331.9 141.504L283.2 190.204L323.4 230.404L372.1 181.704C375 178.804 378.5 171.104 370.6 163.204C368.5 161.104 366.1 158.704 363.7 156.204C358.8 151.304 353.9 146.304 351.3 143.904Z" fill="#F0A686"/>
<path d="M192.2 13.3039L185.2 6.30394C175 -3.89606 160.1 0.803928 157.8 3.10393L108.1 52.8039C107.9 53.0039 93.6 68.104 108.5 83.004L114.2 88.7039C119.4 93.9039 125.4 94.6039 129.6 94.4039C134.5 94.1039 138 92.3039 139.1 91.2039C139.2 91.1039 139.3 91.004 139.3 91.004L139.5 90.7039L139.7 90.4039L192.3 37.8039C195.2 35.0039 200.7 21.8039 192.2 13.3039Z" fill="#F0A686"/>
<path d="M258.6 51.1039L237 29.504C234.6 27.504 221.2 26.2039 215.3 32.1039L148.7 98.7039C146.2 102.304 143.1 116.104 148.4 121.404L168.6 141.604C171.1 144.304 173.7 146.104 175.6 146.904C177 142.704 179.1 139.104 181.7 136.504L205.5 112.704L215.5 122.704C228.7 109.204 247.8 90.0039 260.7 77.6039C266.3 71.8039 266.6 59.1039 258.6 51.1039Z" fill="#F0A686"/>
<path d="M302.4 74.4039C299.6 73.1039 288.1 68.3039 279.3 76.1039C278.5 76.8039 276.3 79.1039 274.3 81.1039C272.4 83.0039 270.5 84.9039 269.2 86.2039C256.4 98.6039 237.3 117.704 224.1 131.204L274.5 181.604L323 133.104C329.6 125.004 337.3 109.704 330.6 102.704C320.8 92.4039 308.2 80.1039 302.4 74.4039Z" fill="#F0A686"/>
</svg>
